<?xml version="1.0" encoding="utf-8"?>
<!-- Generator: Adobe Illustrator 19.0.0, SVG Export Plug-In . SVG Version: 6.00 Build 0)  -->
<svg version="1.1" id="Calque_1" xmlns="http://www.w3.org/2000/svg" xmlns:xlink="http://www.w3.org/1999/xlink" x="0px" y="0px"
	 viewBox="0 0 393.48801 393.48502" style="enable-background:new 0 0 393.48801 393.48502;" xml:space="preserve">
<style type="text/css">
	.st0{fill:#00FFF5;}
</style>
<path class="st0" d="M196.742,0C88.086,0,0,88.086,0,196.742c0,108.66101,88.086,196.74298,196.742,196.74298
	c43.633,0,83.93799-14.211,116.56299-38.24701c-1.73499-0.11298-3.42999-0.875-4.68402-2.27698l-32.22296-36.008l-17.35498,26.633
	l-14.32806-72.39404l73.69501,22.92505l-31.72198,13.625l32.22205,36.01599c1.49597,1.66797,2.00397,3.85901,1.61298,5.90198
	c44.508-36.06995,72.96503-91.16797,72.96503-152.91797C393.48804,88.086,305.40198,0,196.742,0z M124.66797,236.73798h-10.02295
	L100.34399,192.164L97.203,179.26599h-0.19897l-3.008,12.89801L79.961,236.73798H69.87097l-20.98395-72.30798H61.25
	l12.22998,46.24597l1.80103,10.02301l0.203,0.06702l2.20398-10.09003L92.258,164.42999h10.02301l14.56702,46.24597l2.33997,10.961
	h0.203l2.26898-10.961l11.69501-46.24597h12.297L124.66797,236.73798z M228.25397,236.73798h-10.02698L203.92596,192.164
	l-3.14099-12.89801H200.586l-3.008,12.89801l-14.03503,44.57397H173.453l-20.98401-72.30798h12.36298l12.23004,46.24597
	l1.80499,10.02301l0.19897,0.06702l2.20703-10.09003l14.56696-46.24597H205.867l14.56702,46.24597l2.33899,10.961h0.20001
	l2.27295-10.961l11.69501-46.24597h12.29303L228.25397,236.73798z M331.84003,236.73798h-10.02802L307.51202,192.164
	l-3.14105-12.89801H304.172l-3.008,12.89801l-14.03503,44.57397H277.039l-20.98401-72.30798h12.36304l12.22998,46.24597
	l1.80499,10.02301l0.19904,0.06702l2.20697-10.09003l14.56702-46.24597h10.02301l14.57098,46.24597l2.33899,10.961h0.19995
	l2.27307-10.961l11.69495-46.24597h12.29303L331.84003,236.73798z"/>
</svg>
