<?xml version="1.0" encoding="utf-8"?>
<!-- Generator: Adobe Illustrator 19.0.0, SVG Export Plug-In . SVG Version: 6.00 Build 0)  -->
<svg version="1.1" xmlns="http://www.w3.org/2000/svg" xmlns:xlink="http://www.w3.org/1999/xlink" x="0px" y="0px"
	 viewBox="0 0 127.27659 39.46951" style="enable-background:new 0 0 127.27659 39.46951;" xml:space="preserve">
<g id="Calque_1">
</g>
<g id="Calque_2">
	<g id="XMLID_16_">
		<path id="XMLID_17_" d="M40.98085,21.02225c0.125-0.125,0.23047-0.08789,0.31836,0.1123
			c0.08691,0.19922,0.06836,0.36133-0.05664,0.48633c-0.69824,0.69824-1.49609,1.45313-2.39453,2.26367
			s-1.83398,1.55273-2.80664,2.22656c-0.97266,0.67285-1.9707,1.21582-2.99316,1.62793
			c-1.02344,0.41113-1.99609,0.55469-2.91895,0.42969c-1.04785-0.1748-1.80273-0.5918-2.26367-1.25293
			c-0.46191-0.66113-0.76758-1.43457-0.91699-2.32031s-0.21875-1.80859-0.20605-2.76953
			c0.0127-0.95996-0.03125-1.82715-0.13086-2.60059c-0.97266,1.04785-1.87109,2.15234-2.69434,3.31152
			c-0.82324,1.16016-1.80859,2.25195-2.95605,3.27441c-0.47363,0.34961-0.99805,0.71094-1.57129,1.08496
			c-0.57422,0.375-1.20996,0.56152-1.9082,0.56152c-0.74902-0.02441-1.30371-0.26758-1.66504-0.72949
			c-0.3623-0.46094-0.6123-1.02246-0.74902-1.68359s-0.18066-1.38477-0.13086-2.1709c0.0498-0.78516,0.1123-1.51563,0.1875-2.18896
			c0.27441-2.64404,0.79102-5.53174,1.55273-8.6626c0.76074-3.13037,1.65234-6.27979,2.67578-9.44824
			C17.53163,4.39529,15.7289,6.241,13.94569,8.11209c-1.78418,1.87061-3.49316,3.78564-5.12695,5.74365
			c-1.63379,1.95898-3.15625,3.98535-4.56445,6.08057c-1.41016,2.0957-2.63867,4.2793-3.68603,6.54883
			c-0.12549,0.14941-0.26855,0.21875-0.43066,0.20605s-0.18115-0.15625-0.05615-0.43066
			c1.04785-2.46973,2.34473-4.82031,3.8916-7.05371c1.54687-2.23242,3.14355-4.40918,4.79004-6.52979
			c1.77051-2.24512,3.62305-4.37793,5.55664-6.39844c1.93262-2.021,3.83496-4.0415,5.70605-6.06201
			c0.27441-0.22461,0.53027-0.27441,0.76758-0.1499c0.23633,0.12549,0.29297,0.33691,0.16797,0.63623
			c-0.49902,1.97119-1.02246,3.91699-1.57129,5.8374c-0.54883,1.92139-1.05469,3.84815-1.51563,5.78125
			c-0.46191,1.93359-0.86035,3.88574-1.19727,5.85596c-0.33691,1.97119-0.55566,3.9668-0.65527,5.9873
			c0,0.2998,0.04395,0.58691,0.13086,0.86133c0.08789,0.27441,0.22461,0.51074,0.41211,0.71094
			c0.1875,0.19922,0.41699,0.34961,0.69238,0.44824c0.27441,0.10059,0.58594,0.125,0.93555,0.0752
			c0.29883-0.0752,0.62305-0.21191,0.97266-0.41113c0.34863-0.2002,0.69238-0.43652,1.0293-0.71191
			c0.33691-0.27344,0.66016-0.55469,0.97266-0.8418c0.31152-0.28613,0.58008-0.55469,0.80469-0.80371
			c0.47363-0.52441,0.87891-0.99805,1.21582-1.42285c0.33691-0.42383,0.66699-0.85352,0.99219-1.29053
			c0.32324-0.43652,0.67285-0.87939,1.04688-1.32861c0.375-0.44922,0.82324-0.95996,1.34766-1.53418
			c0.27441-0.27441,0.49902-0.37402,0.67383-0.29932c0.17383,0.07471,0.28613,0.22461,0.33594,0.44922
			c0.09961,0.47412,0.15625,1.02881,0.16895,1.66504c0.01172,0.63623,0.03125,1.2915,0.05566,1.96436
			c0.02441,0.67383,0.06836,1.33496,0.13086,1.9834c0.0625,0.64941,0.2002,1.22266,0.41211,1.72168s0.51074,0.89746,0.89844,1.19727
			c0.38574,0.29883,0.90332,0.4248,1.55273,0.37402c0.82324,0,1.74512-0.23633,2.76855-0.71094
			c1.02246-0.47363,2.02051-1.03516,2.99414-1.68359c0.97266-0.64844,1.85742-1.30371,2.65625-1.96484
			C40.01991,21.95193,40.60683,21.42166,40.98085,21.02225z"/>
		<path id="XMLID_19_" d="M48.20155,20.27322c0.0498,0.1001,0.0498,0.20557,0,0.31787s-0.13086,0.20605-0.24316,0.28076
			s-0.2373,0.13086-0.37402,0.16895c-0.1377,0.03711-0.24316,0.01855-0.31836-0.05664
			c-0.34961-0.27441-0.7666-0.46777-1.25293-0.58008s-1.06641-0.09326-1.74023,0.05615
			c-0.64941,0.1499-1.25977,0.41797-1.83398,0.80518c-0.57324,0.38672-1.06055,0.79785-1.45898,1.23438
			c-0.39941,0.43652-0.66797,0.83594-0.80469,1.19727c-0.13672,0.3623-0.08105,0.58008,0.16895,0.65527
			c0.34863,0.125,0.76074,0.15625,1.23438,0.09375s0.94141-0.1748,1.40332-0.33691c0.46094-0.16211,0.87305-0.34277,1.23535-0.54297
			c0.36133-0.19922,0.61719-0.38672,0.7666-0.56152c0.2998-0.34863,0.57324-0.52344,0.82324-0.52344
			c0.24902,0,0.39844,0.0752,0.44922,0.22461c0.0498,0.34961,0.09375,0.69238,0.13086,1.0293
			c0.03711,0.33594,0.05566,0.64258,0.05566,0.91602c0,0.125-0.09961,0.2627-0.29883,0.41211
			c-0.2002,0.14941-0.39941,0.1123-0.59863-0.1123c-0.125-0.125-0.21289-0.28613-0.26172-0.48633
			c-0.05078-0.19922-0.0752-0.36133-0.0752-0.48633c-0.14941,0.14941-0.41797,0.31738-0.80469,0.50488
			s-0.8291,0.34961-1.32813,0.48633c-0.49902,0.1377-1.01074,0.25-1.53418,0.33691
			c-0.52441,0.08789-0.98633,0.10645-1.38477,0.05566c-0.34961-0.04883-0.64844-0.15527-0.89746-0.31738
			c-0.25-0.16211-0.3623-0.37988-0.33691-0.65527c0.02441-0.44922,0.19238-0.94141,0.50488-1.47754
			c0.31152-0.53613,0.7168-1.06055,1.21582-1.57227c0.49902-0.51074,1.0791-0.95996,1.74023-1.34717
			c0.66113-0.38623,1.36621-0.65479,2.11426-0.8042c0.87305-0.17432,1.5957-0.1875,2.16992-0.0376
			C47.24159,19.30008,47.75331,19.67459,48.20155,20.27322z"/>
		<path id="XMLID_21_" d="M67.02382,20.94656c0.22461,0.02539,0.36719,0.08838,0.43066,0.18799
			c0.06152,0.09961,0.04883,0.19922-0.03809,0.29883c-0.08789,0.09961-0.24902,0.1875-0.48633,0.26172
			c-0.2373,0.0752-0.54199,0.10059-0.91699,0.0752c-0.72363-0.0498-1.39746-0.08691-2.02051-0.1123
			c-0.62402-0.02441-1.24707-0.02441-1.87109,0c-0.62305,0.02539-1.24707,0.08789-1.87109,0.1875
			c-0.62305,0.09961-1.29688,0.26172-2.02051,0.48633c0.24902,1.52148,0.24902,3.05566,0,4.60254
			c-0.24902,1.5459-0.72363,2.99316-1.42188,4.34082c-0.49902,0.97266-1.10352,1.91992-1.81445,2.84375
			c-0.71094,0.92188-1.50293,1.75195-2.37598,2.48828c-0.87402,0.73535-1.82129,1.35254-2.84375,1.85156
			c-1.02344,0.49902-2.0957,0.79883-3.21875,0.89844c-0.32324,0.0752-0.7168,0.1123-1.17871,0.1123
			c-0.46094,0-0.92188-0.04395-1.38379-0.13086c-0.46191-0.08789-0.8916-0.23145-1.29102-0.43066
			c-0.39941-0.2002-0.69824-0.47363-0.89844-0.82324c-0.37402-0.64844-0.50488-1.38379-0.39258-2.20703
			s0.31738-1.57227,0.61719-2.24512c0.4248-1.07324,0.97266-2.05273,1.64648-2.9375
			c0.67383-0.88574,1.42188-1.70898,2.24512-2.46973s1.70898-1.47168,2.65625-2.13281
			c0.94824-0.66113,1.89551-1.29102,2.84473-1.88965c-0.22461,0.125-0.44922,0.19336-0.67383,0.20508
			c-0.22461,0.0127-0.41211-0.00586-0.56152-0.05566c-0.09961-0.02441-0.21191-0.10645-0.33691-0.24316
			s-0.21191-0.30566-0.26172-0.50586c-0.09961-0.52344-0.04395-1.02246,0.16797-1.49609s0.55566-0.87988,1.0293-1.2168
			c0.47363-0.33643,1.07227-0.57959,1.7959-0.72949c0.72363-0.14941,1.53418-0.17432,2.43262-0.07471
			c0.0752,0,0.1123,0.05029,0.1123,0.14941c0,0.1001-0.03711,0.20605-0.1123,0.31836s-0.18164,0.20557-0.31836,0.28076
			c-0.13672,0.07471-0.31738,0.11182-0.54199,0.11182c-0.44922-0.02441-0.89844,0.01904-1.34766,0.13135
			c-0.44824,0.1123-0.8418,0.27441-1.17871,0.48633c-0.33691,0.21289-0.59863,0.47461-0.78516,0.78613
			c-0.1875,0.3125-0.24316,0.66797-0.16895,1.06641c0.64844,0.0498,1.24121-0.03711,1.77734-0.26172
			s1.03516-0.51172,1.49707-0.86133c0.46094-0.34863,0.92285-0.73535,1.38477-1.15918
			c0.46094-0.4248,0.94141-0.81104,1.44043-1.16064c0.19922-0.12451,0.37402-0.1499,0.52344-0.07471
			c0.15039,0.07471,0.2627,0.1626,0.33691,0.26172c0.09961,0.125,0.18066,0.28076,0.24316,0.46777s0.11816,0.45605,0.16895,0.80469
			c1.5459-0.47363,3.01758-0.7168,4.41504-0.72998C63.85585,20.69119,65.37733,20.77274,67.02382,20.94656z M53.44081,34.53006
			c1.52148-1.64648,2.65039-3.49902,3.38574-5.55664c0.73633-2.05762,0.97949-4.18457,0.73047-6.37988
			c-0.72461,0.22461-1.40332,0.46777-2.04004,0.72949c-0.63574,0.26172-1.25977,0.54883-1.87109,0.86035
			c-0.61133,0.3125-1.24121,0.65527-1.88965,1.0293s-1.34668,0.79883-2.09473,1.27246
			c-0.52441,0.32422-1.0293,0.69238-1.51563,1.10352c-0.48633,0.41211-0.94141,0.8418-1.36621,1.29102
			c-0.42383,0.44922-0.81641,0.89844-1.17871,1.34766c-0.36133,0.44824-0.67871,0.87305-0.9541,1.27148
			c-0.24902,0.34961-0.49219,0.72363-0.72949,1.12305c-0.23633,0.39844-0.44922,0.81055-0.63574,1.23438
			c-0.1875,0.42383-0.32422,0.85449-0.41211,1.29102c-0.08691,0.43652-0.10547,0.85449-0.05566,1.25391
			c0,0.57324,0.13672,0.99707,0.41113,1.27246c0.27539,0.27441,0.61719,0.46777,1.0293,0.58008
			c0.41113,0.1123,0.86035,0.15527,1.34668,0.13086c0.48633-0.02539,0.92969-0.0625,1.3291-0.1123
			c1.27148-0.27539,2.45605-0.70508,3.55469-1.29102C51.58144,36.39432,52.56679,35.57791,53.44081,34.53006z M57.1078,20.98416
			c-0.32422,0.27539-0.69238,0.56152-1.10449,0.86133c-0.41113,0.29883-0.7793,0.54883-1.10352,0.74805
			c0.42383-0.125,0.8291-0.27441,1.21582-0.44922c0.38672-0.17383,0.79199-0.32422,1.2168-0.44922
			c0-0.12402-0.03223-0.25488-0.09375-0.39258C57.17616,21.1658,57.13222,21.05936,57.1078,20.98416z"/>
		<path id="XMLID_25_" d="M74.3578,20.27322c0.0498,0.1001,0.0498,0.20557,0,0.31787s-0.13086,0.20605-0.24316,0.28076
			s-0.2373,0.13086-0.37402,0.16895c-0.1377,0.03711-0.24316,0.01855-0.31836-0.05664
			c-0.34961-0.27441-0.7666-0.46777-1.25293-0.58008s-1.06641-0.09326-1.74023,0.05615
			c-0.64941,0.1499-1.25977,0.41797-1.83398,0.80518c-0.57324,0.38672-1.06055,0.79785-1.45898,1.23438
			c-0.39941,0.43652-0.66797,0.83594-0.80469,1.19727c-0.13672,0.3623-0.08105,0.58008,0.16895,0.65527
			c0.34863,0.125,0.76074,0.15625,1.23438,0.09375s0.94141-0.1748,1.40332-0.33691c0.46094-0.16211,0.87305-0.34277,1.23535-0.54297
			c0.36133-0.19922,0.61719-0.38672,0.7666-0.56152c0.2998-0.34863,0.57324-0.52344,0.82324-0.52344
			c0.24902,0,0.39844,0.0752,0.44922,0.22461c0.0498,0.34961,0.09375,0.69238,0.13086,1.0293
			c0.03711,0.33594,0.05566,0.64258,0.05566,0.91602c0,0.125-0.09961,0.2627-0.29883,0.41211
			c-0.2002,0.14941-0.39941,0.1123-0.59863-0.1123c-0.125-0.125-0.21289-0.28613-0.26172-0.48633
			c-0.05078-0.19922-0.0752-0.36133-0.0752-0.48633c-0.14941,0.14941-0.41797,0.31738-0.80469,0.50488
			s-0.8291,0.34961-1.32813,0.48633c-0.49902,0.1377-1.01074,0.25-1.53418,0.33691
			c-0.52441,0.08789-0.98633,0.10645-1.38477,0.05566c-0.34961-0.04883-0.64844-0.15527-0.89746-0.31738
			c-0.25-0.16211-0.3623-0.37988-0.33691-0.65527c0.02441-0.44922,0.19238-0.94141,0.50488-1.47754
			c0.31152-0.53613,0.7168-1.06055,1.21582-1.57227c0.49902-0.51074,1.0791-0.95996,1.74023-1.34717
			c0.66113-0.38623,1.36621-0.65479,2.11426-0.8042c0.87305-0.17432,1.5957-0.1875,2.16992-0.0376
			C73.39784,19.30008,73.90956,19.67459,74.3578,20.27322z"/>
		<path id="XMLID_27_" d="M86.25624,10.69412c-0.27441-0.1499-0.64258-0.15576-1.10352-0.01904
			c-0.46191,0.1377-0.94238,0.34961-1.44043,0.63623c-0.5,0.28711-0.98633,0.61719-1.45996,0.9917
			c-0.47363,0.37402-0.86035,0.72363-1.16016,1.04785c-1.17285,1.34668-2.01465,2.61328-2.52539,3.79785
			c-0.51172,1.18506-0.79199,2.45117-0.8418,3.79785c0.02441,0.89893,0.23633,1.60986,0.63574,2.1333
			s0.87988,0.92285,1.44043,1.19727c0.56152,0.27539,1.1543,0.45605,1.77832,0.54297
			c0.62305,0.08789,1.18457,0.13086,1.68359,0.13086c1.12207,0.02539,2.21387-0.0625,3.27441-0.26172
			c1.05957-0.19922,2.07617-0.47363,3.04883-0.82324c0.97363-0.34961,1.88965-0.76074,2.75098-1.23535
			c0.86035-0.47363,1.63965-0.97266,2.33887-1.49609c0.07422-0.0752,0.17383-0.13184,0.29883-0.16895
			c0.125-0.0376,0.2373-0.05615,0.33691-0.05615s0.16211,0.03125,0.1875,0.09326c0.02441,0.0625-0.01367,0.15625-0.1123,0.28125
			c-0.34961,0.42383-0.85547,0.87891-1.51563,1.36523c-0.66113,0.4873-1.36621,0.90527-2.11426,1.25391
			c-0.94824,0.4248-1.80957,0.77344-2.58203,1.04785c-0.77344,0.27441-1.49707,0.49316-2.16992,0.6543
			c-0.67383,0.16309-1.31641,0.27539-1.92773,0.33691c-0.61133,0.0625-1.21582,0.09375-1.81445,0.09375
			c-1.09863-0.02441-2.16504-0.19922-3.19922-0.52344c-1.03613-0.32422-1.83984-0.89844-2.41406-1.72168
			c-0.32422-0.47363-0.55566-0.97852-0.69238-1.51563c-0.13672-0.53613-0.20508-1.05957-0.20508-1.57178
			c0-0.51074,0.04297-1.01025,0.13086-1.49658c0.08691-0.48633,0.20508-0.94141,0.35547-1.36572
			c0.32324-0.97314,0.7793-1.93945,1.36523-2.8999s1.25391-1.80225,2.00195-2.52588
			c0.24902-0.24902,0.57422-0.54834,0.97363-0.89795c0.39844-0.34912,0.84766-0.66748,1.34668-0.95459
			c0.49902-0.28613,1.03516-0.52393,1.60938-0.71094c0.57324-0.18701,1.17188-0.26758,1.7959-0.24316
			c0.59863,0.05029,1.00391,0.2749,1.21582,0.67383s0.25586,0.84814,0.13086,1.34668
			c-0.09961,0.34961-0.31738,0.81738-0.6543,1.40332c-0.33691,0.58643-0.77344,1.21631-1.30957,1.88965
			c-0.53711,0.67383-1.1543,1.35352-1.85254,2.03955c-0.69922,0.68652-1.44727,1.31592-2.24512,1.88965
			c-0.4248,0.29932-0.78613,0.43018-1.08496,0.39307c-0.2998-0.0376-0.33691-0.15576-0.1123-0.35547
			c0.99707-0.84814,1.90137-1.73389,2.71289-2.65723c0.81055-0.92236,1.47754-1.77734,2.00195-2.56299
			c0.52344-0.78564,0.88477-1.45313,1.08496-2.00195C86.41835,11.11844,86.43105,10.79373,86.25624,10.69412z"/>
		<path id="XMLID_29_" d="M104.96718,21.28397c0.12402-0.22461,0.22949-0.3374,0.31738-0.3374
			c0.08691,0,0.15625,0.06299,0.20605,0.18799s0.0752,0.27441,0.0752,0.44824c0,0.1748-0.03809,0.3125-0.1123,0.41211
			c-0.89844,1.34668-1.85938,2.28223-2.88184,2.80664c-1.02246,0.52344-2.00781,0.74805-2.95605,0.67285
			c-0.94824-0.07422-1.80859-0.39258-2.58203-0.9541s-1.37207-1.24023-1.7959-2.03906
			c-0.29883-0.57324-0.41113-0.99707-0.33691-1.27246c0.0752-0.09961,0.21191-0.18652,0.41211-0.26221
			c0.19922-0.07471,0.36133,0.01318,0.48633,0.26221c0.44922,0.87402,1.04102,1.58496,1.77734,2.13281
			c0.73535,0.54883,1.52734,0.86133,2.37598,0.93555c0.84766,0.0752,1.71484-0.1123,2.60059-0.56152
			C103.43886,23.26736,104.24257,22.45682,104.96718,21.28397z M99.39101,12.86404c0.24902,0,0.46191,0.0376,0.63672,0.1123
			c0.17383,0.0752,0.28613,0.25,0.33691,0.52393c0.02441,0.1499-0.09375,0.31836-0.35547,0.50537
			c-0.2627,0.18701-0.56836,0.23096-0.91699,0.13086c-0.22461-0.0498-0.39355-0.16211-0.50586-0.33691
			c-0.11133-0.17432-0.16797-0.35547-0.16797-0.54248s0.05664-0.35547,0.16797-0.50537
			c0.1123-0.14941,0.28125-0.22412,0.50586-0.22412c0.09961,0,0.18652,0.0625,0.26172,0.18701
			C99.37831,12.76492,99.39101,12.81473,99.39101,12.86404z"/>
	</g>
	<g id="XMLID_1_">
		<g id="XMLID_77_">
			<path id="XMLID_6_" d="M66.42812,30.34647c0,0.98926-0.61133,1.83496-1.4707,2.19922
				c1.14551,0.28711,1.99121,1.32813,1.99121,2.55176c0,1.45703-1.18457,2.6416-2.64258,2.6416h-5.0625v-9.76172h4.81543
				C65.36073,27.97733,66.42812,29.04471,66.42812,30.34647z M64.05898,32.45486c1.1582,0,2.1084-0.9502,2.1084-2.1084
				s-0.9502-2.1084-2.1084-2.1084h-4.55566v4.2168H64.05898z M59.50331,32.71561v4.76367h4.80273
				c1.31543,0,2.38184-1.06738,2.38184-2.38184s-1.06641-2.38184-2.38184-2.38184H59.50331z"/>
			<path id="XMLID_70_" d="M64.30605,37.86404h-5.1875V27.85233h4.94043c1.375,0,2.49414,1.11914,2.49414,2.49414
				c0,0.90234-0.48633,1.72461-1.2627,2.17285c1.06445,0.39941,1.7832,1.41895,1.7832,2.57813
				C67.07362,36.62283,65.83241,37.86404,64.30605,37.86404z M59.36855,37.61404h4.9375c1.38867,0,2.51758-1.12891,2.51758-2.5166
				c0-1.15137-0.78027-2.15039-1.89648-2.43066l-0.3623-0.09082l0.34375-0.14551c0.84668-0.35938,1.39453-1.17676,1.39453-2.08398
				c0-1.2373-1.00684-2.24414-2.24414-2.24414h-4.69043V37.61404z M64.30605,37.60428h-4.92773v-5.01367h4.92773
				c1.38184,0,2.50684,1.125,2.50684,2.50684S65.68788,37.60428,64.30605,37.60428z M59.62831,37.35428h4.67773
				c1.24414,0,2.25684-1.0127,2.25684-2.25684s-1.0127-2.25684-2.25684-2.25684h-4.67773V37.35428z M64.05898,32.57986h-4.68066
				v-4.4668h4.68066c1.23145,0,2.2334,1.00195,2.2334,2.2334S65.29042,32.57986,64.05898,32.57986z M59.62831,32.32986h4.43066
				c1.09375,0,1.9834-0.88965,1.9834-1.9834s-0.88965-1.9834-1.9834-1.9834h-4.43066V32.32986z"/>
		</g>
		<g id="XMLID_68_">
			<path id="XMLID_9_" d="M67.70741,37.73904l4.55469-9.76172h0.27344l4.59473,9.76172h-0.28613l-1.4834-3.13672h-5.90918
				l-1.45801,3.13672H67.70741z M69.58144,34.34256h5.64844l-2.82422-6.06543L69.58144,34.34256z"/>
			<path id="XMLID_64_" d="M77.32753,37.86404h-0.5625l-0.03418-0.07129l-1.44922-3.06543h-5.75l-1.45801,3.13672h-0.5625
				l4.6709-10.01172h0.43262l0.03418,0.07129L77.32753,37.86404z M76.92323,37.61404H76.933l-3.9248-8.33984l2.41797,5.19336
				h-6.04102l2.96387-6.36523h-0.00684l-4.43848,9.51172h0.00977l1.45801-3.13672h6.06836l0.03418,0.07129L76.92323,37.61404z
				 M69.77773,34.21756h5.25586l-2.62793-5.64453L69.77773,34.21756z"/>
		</g>
		<g id="XMLID_62_">
			<path id="XMLID_11_" d="M78.29237,27.97733h0.26074v5.90918c0,1.97852,1.61426,3.5791,3.5918,3.5791
				c1.96582,0,3.59277-1.58789,3.60547-3.56641v-5.92188h0.26074v5.90918c0,2.13477-1.73145,3.85254-3.86621,3.85254
				c-2.13379,0-3.85254-1.71777-3.85254-3.85254V27.97733z"/>
			<path id="XMLID_13_" d="M82.14491,37.86404c-2.19336,0-3.97754-1.78418-3.97754-3.97754v-6.03418h0.51074v6.03418
				c0,1.9043,1.55566,3.4541,3.4668,3.4541c1.90723,0,3.46875-1.54395,3.48047-3.44238v-6.0459h0.51074v6.03418
				C86.13612,36.07986,84.34608,37.86404,82.14491,37.86404z M78.41737,28.10233v5.78418c0,2.05566,1.67188,3.72754,3.72754,3.72754
				c2.0625,0,3.74121-1.67188,3.74121-3.72754l-0.01074-5.78418v5.79688c-0.0127,2.03613-1.68652,3.69141-3.73047,3.69141
				c-2.0498,0-3.7168-1.66211-3.7168-3.7041L78.41737,28.10233z"/>
		</g>
		<g id="XMLID_59_">
			<path id="XMLID_14_" d="M88.31874,27.97733h3.66992c2.68164,0.0127,4.86816,2.2002,4.86816,4.88086
				c0,2.69434-2.18652,4.88086-4.88086,4.88086h-3.65723V27.97733z M91.9496,28.23807h-3.37109v9.24121h3.37109
				c2.56445,0,4.63379-2.05664,4.63379-4.62109C96.58339,30.29471,94.51405,28.23807,91.9496,28.23807z"/>
			<path id="XMLID_54_" d="M91.97597,37.86404h-3.78223V27.85233h3.79492c2.75391,0.0127,4.99316,2.25879,4.99316,5.00586
				C96.98183,35.61795,94.73573,37.86404,91.97597,37.86404z M88.44374,37.61404h3.53223c2.62207,0,4.75586-2.13379,4.75586-4.75586
				c0-2.61035-2.12793-4.74316-4.74414-4.75586h-3.54395V37.61404z M91.9496,37.60428h-3.49609v-9.49121h3.49609
				c2.62402,0,4.75879,2.12891,4.75879,4.74512C96.70839,35.47537,94.57362,37.60428,91.9496,37.60428z M88.70351,37.35428h3.24609
				c2.48633,0,4.50879-2.0166,4.50879-4.49609c0-2.47852-2.02246-4.49512-4.50879-4.49512h-3.24609V37.35428z"/>
		</g>
		<g id="XMLID_52_">
			<path id="XMLID_45_" d="M98.93105,27.97733h6.07813v0.26074h-5.83105v4.37305h5.42773v0.26074h-5.42773v4.60742h5.83105v0.25977
				h-6.07813V27.97733z"/>
			<path id="XMLID_47_" d="M105.13417,37.86404h-6.32813V27.85233h6.32813v0.51074h-5.83105v4.12305h5.42773v0.51074h-5.42773
				v4.35742h5.83105V37.86404z M99.05605,37.61404l5.82813-0.00977L99.05605,37.61404z M99.05605,32.74686l5.4248-0.01074
				L99.05605,32.74686z M99.05605,28.11307l5.82813-0.01074L99.05605,28.11307z"/>
		</g>
	</g>
</g>
<g id="Mode_Isolation">
	<g>
		<path d="M119.27169,6.71447c0,0,0.2197-0.2754,0.6602-0.8252c0.4199-0.5254,0.81049-0.8106,1.1679-0.8536
			c0.4502-0.0625,0.8848,0.0665,1.30669,0.3868c0.3633,0.2734,0.6806,0.6582,0.9531,1.1552c1.5215,0.1485,2.8262,0.3858,3.917,0.71
			c-0.5459,0.2676-1.418,0.4258-2.6182,0.4736l-2.9629,0.1221c-0.2812,1.7744-0.4804,3.1582-0.5957,4.1533
			c-0.3144,0.1865-0.71191,0.333-1.1894,0.4375c-0.5703,0.124-0.92381,0.2158-1.0625,0.2725
			c-0.0859,0.039-0.2559,0.1504-0.5098,0.3379c-0.2099,0.1484-0.3965,0.2343-0.5586,0.2578
			c-0.82809,0.1094-2.1328-0.3252-3.917-1.3057c-0.0957-0.0527-0.30759-0.2246-0.6377-0.5166
			c-0.2304-0.2051-0.4531-0.3105-0.6679-0.3154c-0.2725-0.0098-0.6856,0.1728-1.2403,0.5449
			c-0.5888,0.3926-1.0068,0.6074-1.2558,0.6455c-0.5645,0.0821-1.2598,0.0606-2.0879-0.0644
			c-0.9512-0.1387-1.6797-0.1983-2.1875-0.1797c-0.0811-0.2432-0.00201-0.5332,0.2363-0.8672
			c0.293-0.4063,0.4531-0.7109,0.4815-0.9111c0.7177-0.1768,1.9199-0.4952,3.6084-0.9541c1.5293-0.4209,2.7402-0.7364,3.6289-0.9473
			c-0.8457-0.5488-1.252-1.707-1.2188-3.4707c0.0098-0.541,0.0684-1.3184,0.1787-2.332c0.1201-1.0997,0.18851-1.8555,0.208-2.2666
			c0.10551-0.0381,0.27541-0.0362,0.5098,0.0068c0.1582,0.0332,0.3057-0.0469,0.4443-0.2441
			c0.4356,0.5449,1.251,1.6699,2.4463,3.372c1,1.4248,1.8457,2.5176,2.5391,3.2783
			C119.13009,6.74767,119.27169,6.71447,119.27169,6.71447z M108.43969,10.59427c0.9473-0.4101,1.6074-0.7216,1.9805-0.9316
			c-0.0489,0.0234-0.8614,0.2295-2.4395,0.6172c-0.4785,0.1191-0.832,0.2646-1.0615,0.4375
			c-0.292,0.2148-0.4307,0.4971-0.416,0.8457C106.92409,11.29547,107.56959,10.97317,108.43969,10.59427z M108.36739,12.02987
			c0.8321-0.0488,1.3965-0.0459,1.6934,0.0068c0.0097-0.2002-0.0166-0.4902-0.0781-0.8681
			c-0.0586-0.3487-0.0704-0.6524-0.0372-0.9102c-1.7304,0.6934-2.8789,1.2451-3.4423,1.6563
			C106.967,12.03377,107.58809,12.07287,108.36739,12.02987z M110.75019,11.62747c0.1817-0.0712,0.3262-0.1337,0.4375-0.1855
			c0.3203-0.1582,0.5371-0.3574,0.6524-0.5957c-0.2149-0.0244-0.4922-0.1006-0.83209-0.2305
			c-0.34961-0.1328-0.625-0.2148-0.8251-0.2431c0.081,0.1865,0.1201,0.6621,0.1142,1.4267
			C110.34009,11.78087,110.49139,11.72317,110.75019,11.62747z M115.72089,10.82477c-0.64639-0.8994-1.18649-1.5644-1.62109-1.9941
			c-0.3691,0.2529-0.98531,0.4873-1.8515,0.7031c-0.9805,0.2432-1.6309,0.4443-1.9512,0.6016
			c0.88091,0.1914,2.083,0.6601,3.6084,1.4062c1.502,0.7363,2.6358,1.1797,3.40041,1.3272
			C116.95729,12.49077,116.42799,11.80917,115.72089,10.82477z M115.64179,6.75737c1.2432,0.0332,2.1543,0.1319,2.7334,0.294
			c-2.4199-3.1231-4.164-5.1407-5.2304-6.0547c-0.0371,0.5742-0.0957,1.5039-0.1719,2.791c-0.0762,1.21-0.1358,2.1406-0.1797,2.79
			C113.27759,6.65877,114.22679,6.71927,115.64179,6.75737z M118.72679,7.16657c-0.4746,0.0186-1.416-0.0293-2.8272-0.1445
			c-1.1806-0.0899-2.1376-0.0801-2.8691,0.0293c0.5928,0.6025,1.35351,1.5234,2.2813,2.7617
			c1.0048,1.3486,1.747,2.2881,2.2314,2.8183C118.217,10.42727,118.61159,8.60607,118.72679,7.16657z M114.56569,1.53567
			c-0.2393-0.373-0.47369-0.6318-0.7032-0.7753c-0.12009,0.3105,0.0313,0.6552,0.4522,1.0332
			c0.1289,0.1191,0.2969,0.248,0.5019,0.3867c0.2295,0.1582,0.3467,0.2373,0.3516,0.2373
			C115.06759,2.31207,114.86739,2.01817,114.56569,1.53567z M120.62719,12.03667c0.0625-0.2627,0.2197-1.0947,0.4726-2.4961
			c-0.1191-0.1572-0.791-0.9092-2.0156-2.2529c-0.0957,0.5264-0.3105,1.5098-0.6445,2.9492
			c-0.2871,1.2422-0.4688,2.1582-0.5459,2.7461C118.38699,12.53867,119.29709,12.22317,120.62719,12.03667z M120.23949,8.14897
			c0.4307,0.5215,0.7588,0.8672,0.98341,1.0401c-0.0059-1.9756-0.084-3.2422-0.2373-3.8018
			c-0.0088,0.0049-0.333,0.2774-0.9678,0.8184c-0.3828,0.3291-0.6562,0.6494-0.8183,0.9609
			C119.50019,7.35217,119.84789,7.68027,120.23949,8.14897z M123.12329,7.41067c-0.0576-1.1484-0.6524-1.8222-1.7862-2.0234
			c-0.0244,0.2774-0.0029,0.6328,0.0645,1.0684c0.06741,0.4355,0.0859,0.792,0.0576,1.0693
			C122.61159,7.41467,123.16629,7.37657,123.12329,7.41067z M123.35959,7.52497c0.1817-0.0576,0.64841-0.084,1.39841-0.0791
			c0.62309,0,1.02639-0.0937,1.21289-0.2793c-0.39249,0.0527-0.8398,0.0254-1.3418-0.0801
			c-0.5488-0.1191-0.9726-0.1718-1.2695-0.1572V7.52497z"/>
	</g>
</g>
</svg>
